<svg width="65" height="56" viewBox="0 0 65 56" fill="none" xmlns="http://www.w3.org/2000/svg">
<path d="M32.0961 0.00199986C30.8931 0.00199984 29.7018 0.23896 28.5903 0.699351C27.4788 1.15974 26.4689 1.83455 25.6182 2.68524C24.7675 3.53593 24.0927 4.54585 23.6323 5.65733C23.1719 6.76881 22.935 7.96009 22.935 9.16315C22.935 10.3662 23.1719 11.5575 23.6323 12.669C24.0927 13.7805 24.7675 14.7904 25.6182 15.6411C26.4689 16.4918 27.4788 17.1666 28.5903 17.627C29.7018 18.0873 30.8931 18.3243 32.0961 18.3243C34.5258 18.3243 36.856 17.3591 38.5741 15.6411C40.2921 13.923 41.2573 11.5928 41.2573 9.16315C41.2573 6.73347 40.2921 4.40329 38.5741 2.68524C36.856 0.96719 34.5258 0.00199986 32.0961 0.00199986V0.00199986ZM52.7294 4.57799C50.9053 4.57799 49.1559 5.30261 47.8661 6.59244C46.5763 7.88226 45.8516 9.63164 45.8516 11.4557C45.8516 13.2798 46.5763 15.0292 47.8661 16.319C49.1559 17.6089 50.9053 18.3335 52.7294 18.3335C54.5535 18.3335 56.3029 17.6089 57.5927 16.319C58.8825 15.0292 59.6071 13.2798 59.6071 11.4557C59.6071 9.63164 58.8825 7.88226 57.5927 6.59244C56.3029 5.30261 54.5535 4.57799 52.7294 4.57799V4.57799ZM11.4629 4.57799C9.63882 4.57799 7.88944 5.30261 6.59961 6.59244C5.30978 7.88226 4.58516 9.63164 4.58516 11.4557C4.58516 13.2798 5.30978 15.0292 6.59961 16.319C7.88944 17.6089 9.63882 18.3335 11.4629 18.3335C13.287 18.3335 15.0364 17.6089 16.3262 16.319C17.616 15.0292 18.3407 13.2798 18.3407 11.4557C18.3407 9.63164 17.616 7.88226 16.3262 6.59244C15.0364 5.30261 13.287 4.57799 11.4629 4.57799ZM18.3407 27.4717C18.3491 26.2612 18.8359 25.1032 19.6949 24.2502C20.5539 23.3973 21.7153 22.9186 22.9258 22.9186H41.2665C42.4825 22.9186 43.6488 23.4017 44.5087 24.2616C45.3686 25.1215 45.8516 26.2877 45.8516 27.5038V41.2593C45.8513 42.7023 45.6255 44.1365 45.1822 45.5097C44.1669 48.6217 42.0755 51.2698 39.2835 52.9785C36.4914 54.6872 33.1817 55.3446 29.9486 54.8326C26.7155 54.3207 23.7708 52.6729 21.6433 50.1851C19.5158 47.6974 18.3448 44.5327 18.3407 41.2593V27.4717ZM13.7555 27.5038C13.7555 25.8302 14.2003 24.2667 14.9843 22.9186H4.58516C3.3691 22.9186 2.20285 23.4017 1.34296 24.2616C0.483079 25.1215 6.34647e-07 26.2877 6.34647e-07 27.5038V38.9667C-0.000623801 40.8434 0.459553 42.6916 1.34012 44.3489C2.22068 46.0063 3.4947 47.422 5.05029 48.4719C6.60588 49.5218 8.39546 50.1737 10.2619 50.3703C12.1283 50.567 14.0144 50.3024 15.7546 49.5997C14.4349 47.0163 13.7496 44.1557 13.7555 41.2547V27.5038ZM50.4368 27.5038V41.2593C50.4368 44.2626 49.7169 47.0962 48.4377 49.5997C50.1779 50.3024 52.064 50.567 53.9304 50.3703C55.7968 50.1737 57.5864 49.5218 59.142 48.4719C60.6976 47.422 61.9716 46.0063 62.8522 44.3489C63.7327 42.6916 64.1929 40.8434 64.1923 38.9667V27.5038C64.1923 26.2877 63.7092 25.1215 62.8493 24.2616C61.9894 23.4017 60.8232 22.9186 59.6071 22.9186H49.208C49.9875 24.2667 50.4368 25.8302 50.4368 27.5038Z" fill="#9747FF"/>
</svg>
