<svg width="64" height="64" viewBox="0 0 64 64" fill="none" xmlns="http://www.w3.org/2000/svg">
<path d="M3.55556 35.5556H24.8889C25.8319 35.5556 26.7362 35.181 27.403 34.5142C28.0698 33.8474 28.4444 32.943 28.4444 32V3.55556C28.4444 2.61256 28.0698 1.70819 27.403 1.0414C26.7362 0.374602 25.8319 0 24.8889 0H3.55556C2.61256 0 1.70819 0.374602 1.0414 1.0414C0.374602 1.70819 0 2.61256 0 3.55556V32C0 32.943 0.374602 33.8474 1.0414 34.5142C1.70819 35.181 2.61256 35.5556 3.55556 35.5556ZM0 60.4444C0 61.3874 0.374602 62.2918 1.0414 62.9586C1.70819 63.6254 2.61256 64 3.55556 64H24.8889C25.8319 64 26.7362 63.6254 27.403 62.9586C28.0698 62.2918 28.4444 61.3874 28.4444 60.4444V46.2222C28.4444 45.2792 28.0698 44.3749 27.403 43.7081C26.7362 43.0413 25.8319 42.6667 24.8889 42.6667H3.55556C2.61256 42.6667 1.70819 43.0413 1.0414 43.7081C0.374602 44.3749 0 45.2792 0 46.2222V60.4444ZM35.5556 60.4444C35.5556 61.3874 35.9302 62.2918 36.597 62.9586C37.2638 63.6254 38.1681 64 39.1111 64H60.4444C61.3874 64 62.2918 63.6254 62.9586 62.9586C63.6254 62.2918 64 61.3874 64 60.4444V35.5556C64 34.6126 63.6254 33.7082 62.9586 33.0414C62.2918 32.3746 61.3874 32 60.4444 32H39.1111C38.1681 32 37.2638 32.3746 36.597 33.0414C35.9302 33.7082 35.5556 34.6126 35.5556 35.5556V60.4444ZM39.1111 24.8889H60.4444C61.3874 24.8889 62.2918 24.5143 62.9586 23.8475C63.6254 23.1807 64 22.2763 64 21.3333V3.55556C64 2.61256 63.6254 1.70819 62.9586 1.0414C62.2918 0.374602 61.3874 0 60.4444 0H39.1111C38.1681 0 37.2638 0.374602 36.597 1.0414C35.9302 1.70819 35.5556 2.61256 35.5556 3.55556V21.3333C35.5556 22.2763 35.9302 23.1807 36.597 23.8475C37.2638 24.5143 38.1681 24.8889 39.1111 24.8889Z" fill="#F4F4F4"/>
</svg>
